<svg width="44" height="46" viewBox="0 0 44 46" fill="none" xmlns="http://www.w3.org/2000/svg">
<path d="M22.0255 16.8351C20.5071 16.8351 19.0852 17.4241 18.0087 18.5007C16.9372 19.5772 16.3431 20.9991 16.3431 22.5175C16.3431 24.0358 16.9372 25.4577 18.0087 26.5343C19.0852 27.6058 20.5071 28.1999 22.0255 28.1999C23.5438 28.1999 24.9657 27.6058 26.0423 26.5343C27.1138 25.4577 27.7079 24.0358 27.7079 22.5175C27.7079 20.9991 27.1138 19.5772 26.0423 18.5007C25.5164 17.9708 24.8906 17.5507 24.201 17.2648C23.5115 16.9788 22.772 16.8328 22.0255 16.8351ZM42.9626 28.794L39.6415 25.9554C39.7989 24.9905 39.8802 24.0054 39.8802 23.0253C39.8802 22.0452 39.7989 21.055 39.6415 20.0952L42.9626 17.2565C43.2135 17.0418 43.393 16.7557 43.4774 16.4364C43.5617 16.1171 43.5469 15.7797 43.4348 15.469L43.3891 15.337C42.4752 12.7811 41.1056 10.412 39.347 8.34443L39.2556 8.23779C39.042 7.98669 38.7574 7.80618 38.4392 7.72007C38.121 7.63395 37.7842 7.64626 37.4731 7.75537L33.3497 9.22295C31.8263 7.97373 30.1302 6.98857 28.2919 6.30303L27.4946 1.9917C27.4345 1.66691 27.2769 1.36812 27.0429 1.13501C26.8089 0.901899 26.5095 0.745511 26.1845 0.686621L26.0474 0.66123C23.4067 0.183887 20.6239 0.183887 17.9833 0.66123L17.8462 0.686621C17.5212 0.745511 17.2218 0.901899 16.9877 1.13501C16.7537 1.36812 16.5962 1.66691 16.536 1.9917L15.7337 6.32334C13.9128 7.01435 12.2165 7.99712 10.7114 9.2331L6.55751 7.75537C6.24655 7.64539 5.90949 7.63264 5.59111 7.71881C5.27274 7.80498 4.98812 7.98599 4.77509 8.23779L4.68368 8.34443C2.92813 10.4142 1.55896 12.7828 0.641492 15.337L0.595789 15.469C0.367273 16.1038 0.555164 16.8147 1.06805 17.2565L4.42977 20.1257C4.27235 21.0804 4.19618 22.0554 4.19618 23.0202C4.19618 23.9952 4.27235 24.9702 4.42977 25.9147L1.07821 28.7839C0.827329 28.9987 0.647771 29.2847 0.56341 29.604C0.47905 29.9233 0.493886 30.2607 0.605945 30.5714L0.651648 30.7034C1.57079 33.2577 2.92665 35.619 4.69384 37.696L4.78524 37.8026C4.9988 38.0537 5.28343 38.2342 5.60161 38.3204C5.9198 38.4065 6.25661 38.3942 6.56766 38.2851L10.7216 36.8073C12.2349 38.0515 13.9208 39.0366 15.7438 39.7171L16.5462 44.0487C16.6063 44.3735 16.7639 44.6723 16.9979 44.9054C17.2319 45.1385 17.5313 45.2949 17.8563 45.3538L17.9934 45.3792C20.66 45.8591 23.3909 45.8591 26.0575 45.3792L26.1946 45.3538C26.5196 45.2949 26.819 45.1385 27.0531 44.9054C27.2871 44.6723 27.4446 44.3735 27.5048 44.0487L28.302 39.7374C30.1403 39.0468 31.8364 38.0667 33.3599 36.8175L37.4833 38.2851C37.7942 38.395 38.1313 38.4078 38.4497 38.3216C38.7681 38.2355 39.0527 38.0544 39.2657 37.8026L39.3571 37.696C41.1243 35.6089 42.4802 33.2577 43.3993 30.7034L43.445 30.5714C43.6634 29.9417 43.4755 29.2358 42.9626 28.794ZM22.0255 31.4448C17.0946 31.4448 13.0981 27.4483 13.0981 22.5175C13.0981 17.5866 17.0946 13.5901 22.0255 13.5901C26.9563 13.5901 30.9528 17.5866 30.9528 22.5175C30.9528 27.4483 26.9563 31.4448 22.0255 31.4448Z" fill="#006666"/>
</svg>
