<svg width="58" height="57" viewBox="0 0 58 57" fill="none" xmlns="http://www.w3.org/2000/svg">
<path d="M23.1775 1.58839C24.4891 2.00356 25.2129 2.96984 25.8302 4.07207C26.4805 5.23675 27.1639 6.38673 27.8362 7.54039C29.4491 10.3143 31.0547 13.0919 32.686 15.8511C32.9432 16.2847 32.8881 16.5088 32.4582 16.7403C31.8446 17.0673 31.2494 17.4383 30.6506 17.7947C30.4852 17.8939 30.2097 17.9454 30.2207 18.1548C30.2317 18.3826 30.5183 18.3863 30.6946 18.4377C34.1777 19.4481 37.6644 20.4401 41.14 21.4615C41.5956 21.5937 41.794 21.5092 41.9006 21.0463C42.2239 19.6501 42.5729 18.2577 42.9109 16.8652C43.4363 14.6754 43.9617 12.4894 44.4798 10.2996C44.5091 10.171 44.612 10.0094 44.4945 9.90649C44.3475 9.7779 44.1932 9.91752 44.0646 9.99467C43.4767 10.3327 42.8962 10.678 42.3084 11.0197C41.5919 11.4386 41.5478 11.4239 41.1217 10.6891C39.5932 8.05109 38.1016 5.39106 36.518 2.78614C35.324 0.816838 33.6376 -0.292732 31.187 0.0673271C29.552 0.309816 27.9281 0.614764 26.3078 0.934408C25.2607 1.14016 24.2209 1.37162 23.1775 1.58839Z" fill="#013D3D"/>
<path d="M6.36126 51.7102C6.41637 51.6992 6.46781 51.6881 6.52292 51.6734C6.15551 50.2185 6.79113 49.0575 7.52594 47.9149C7.73169 47.5952 7.9007 47.2572 8.09175 46.9302C10.1015 43.4435 12.1149 39.9605 14.1136 36.4701C14.356 36.0476 14.5802 35.9558 15.0064 36.2313C15.6052 36.6208 16.2372 36.9625 16.8618 37.3152C17.0087 37.396 17.1667 37.5907 17.3394 37.4401C17.4937 37.3078 17.3835 37.1021 17.3431 36.9331C17.0602 35.7721 16.7699 34.6147 16.487 33.4537C15.9102 31.095 15.337 28.7325 14.7675 26.3738C14.6647 25.9402 14.4369 25.7639 13.9886 25.9035C13.4375 26.0762 12.8827 26.2342 12.328 26.3958C9.34828 27.2666 6.36493 28.1373 3.38526 29.0118C3.26034 29.0485 3.06929 29.0265 3.05092 29.2028C3.03255 29.3645 3.20156 29.4233 3.31913 29.4894C3.9033 29.8311 4.49116 30.1654 5.07901 30.5071C5.89833 30.9847 5.87996 30.9737 5.3913 31.8151C3.85554 34.4457 2.30876 37.0727 0.820756 39.729C-0.3476 41.8196 -0.329229 43.8734 1.26899 45.7839C2.31978 47.0368 3.36689 48.2859 4.4287 49.5278C5.05696 50.2699 5.71462 50.9827 6.36126 51.7102Z" fill="#013D3D"/>
<path d="M39.8786 56.0042C39.8786 55.0305 39.9044 54.1451 39.8713 53.2596C39.8492 52.6938 40.0587 52.444 40.6245 52.4844C40.8817 52.5028 41.1425 52.4844 41.3997 52.4844C44.4088 52.4807 47.4178 52.5432 50.4232 52.4477C52.444 52.3852 53.9687 51.3969 54.8027 49.4717C55.6992 47.4032 56.3422 45.2428 57.088 43.1229C57.2643 42.6232 57.4848 42.1198 57.5399 41.4732C56.5663 42.4358 55.4494 42.6673 54.2332 42.6599C51.485 42.6452 48.7368 42.6563 45.9849 42.6599C44.192 42.6599 42.399 42.6526 40.6061 42.6673C40.0807 42.671 39.8419 42.4946 39.8713 41.9361C39.908 41.2417 39.886 40.5437 39.875 39.8456C39.8713 39.6545 39.9742 39.39 39.7721 39.2945C39.5627 39.1953 39.4377 39.4598 39.3055 39.5884C36.6491 42.1125 34.0038 44.6476 31.3401 47.1643C30.9176 47.5611 31.127 47.7853 31.4356 48.0755C33.9634 50.4747 36.4801 52.8849 39.0079 55.284C39.243 55.5082 39.4341 55.7984 39.8786 56.0042Z" fill="#013D3D"/>
<path d="M15.727 52.4478C15.727 52.4552 15.727 52.4589 15.727 52.4662C17.6192 52.4662 19.5113 52.4589 21.4035 52.4699C21.8701 52.4736 22.1015 52.3192 22.1052 51.8196C22.1236 48.9501 22.1493 46.0843 22.186 43.2149C22.1934 42.7483 21.9876 42.5756 21.5394 42.5756C18.7912 42.5719 16.0393 42.5646 13.2911 42.5462C12.9164 42.5425 12.6518 42.6748 12.4608 43.0092C11.1785 45.2356 9.87056 47.4474 8.603 49.6813C7.78001 51.1325 8.55891 52.4368 10.2306 52.4478C12.0603 52.4589 13.8937 52.4478 15.727 52.4478Z" fill="#013D3D"/>
<path d="M28.0025 11.7434C27.9988 11.4679 27.896 11.2952 27.7968 11.1225C26.5072 8.87767 25.2359 6.62179 23.9206 4.3953C23.1417 3.07631 21.617 3.10937 20.8454 4.44306C18.9533 7.69462 17.0832 10.9645 15.1837 14.2124C14.9081 14.6864 14.9632 14.9178 15.4409 15.1897C17.8621 16.5675 20.2686 17.982 22.6788 19.3782C23.3511 19.7676 23.4173 19.7492 23.7957 19.0989C25.1441 16.7732 26.4888 14.4439 27.8335 12.1145C27.907 11.9786 27.9621 11.8316 28.0025 11.7434Z" fill="#013D3D"/>
<path d="M50.9276 40.7539C50.9276 40.7576 50.9276 40.7612 50.9276 40.7649C52.1805 40.7649 53.4407 40.6914 54.6899 40.7833C56.0676 40.8862 57.1625 39.5268 56.2918 38.0498C54.3886 34.8276 52.5515 31.565 50.7108 28.3061C50.4353 27.8175 50.1854 27.7844 49.7225 28.0526C47.2793 29.4745 44.825 30.878 42.3633 32.2631C41.871 32.5387 41.849 32.8032 42.1135 33.2588C43.4435 35.5477 44.7588 37.8477 46.0521 40.155C46.302 40.5996 46.6142 40.7649 47.1029 40.7576C48.3778 40.7429 49.6527 40.7539 50.9276 40.7539Z" fill="#013D3D"/>
<path d="M37.1281 28.1043H32.4216C32.3555 27.3254 32.0726 26.6971 31.5729 26.2195C31.0769 25.7418 30.3788 25.503 29.4824 25.503C28.314 25.503 27.4212 25.9219 26.804 26.7595C26.1867 27.5972 25.8781 28.7582 25.8781 30.2426C25.8781 31.8114 26.1904 32.9945 26.815 33.788C27.4396 34.5853 28.3177 34.9821 29.4493 34.9821C30.3017 34.9821 30.9777 34.769 31.4847 34.3428C31.9917 33.9166 32.304 33.3398 32.4179 32.6123L37.1244 32.6454C37.0693 33.3692 36.8672 34.104 36.5145 34.8535C36.1655 35.603 35.6658 36.2901 35.0265 36.922C34.3836 37.554 33.59 38.061 32.6457 38.4431C31.7015 38.8252 30.603 39.0199 29.3501 39.0199C27.7813 39.0199 26.3741 38.6819 25.1323 38.0096C23.8904 37.3372 22.9058 36.3452 22.1856 35.0409C21.4655 33.7329 21.1055 32.1347 21.1055 30.2426C21.1055 28.3394 21.4729 26.7375 22.2077 25.4332C22.9425 24.1289 23.9308 23.1406 25.1763 22.4719C26.4219 21.8032 27.8143 21.4652 29.3501 21.4652C30.7867 21.4652 32.0652 21.7224 33.1932 22.2404C34.3174 22.7585 35.2249 23.5117 35.912 24.5C36.6027 25.492 37.0069 26.6934 37.1281 28.1043Z" fill="#013D3D"/>
</svg>
