<svg width="44" height="46" viewBox="0 0 44 46" fill="none" xmlns="http://www.w3.org/2000/svg">
<path d="M22.0257 16.8351C20.5074 16.8351 19.0855 17.4241 18.0089 18.5007C16.9374 19.5772 16.3433 20.9991 16.3433 22.5175C16.3433 24.0358 16.9374 25.4577 18.0089 26.5343C19.0855 27.6058 20.5074 28.1999 22.0257 28.1999C23.5441 28.1999 24.966 27.6058 26.0425 26.5343C27.114 25.4577 27.7081 24.0358 27.7081 22.5175C27.7081 20.9991 27.114 19.5772 26.0425 18.5007C25.5167 17.9708 24.8908 17.5507 24.2013 17.2648C23.5117 16.9788 22.7722 16.8328 22.0257 16.8351ZM42.9628 28.794L39.6417 25.9554C39.7992 24.9905 39.8804 24.0054 39.8804 23.0253C39.8804 22.0452 39.7992 21.055 39.6417 20.0952L42.9628 17.2565C43.2137 17.0418 43.3933 16.7557 43.4776 16.4364C43.562 16.1171 43.5472 15.7797 43.4351 15.469L43.3894 15.337C42.4754 12.7811 41.1059 10.412 39.3472 8.34443L39.2558 8.23779C39.0422 7.98669 38.7576 7.80618 38.4394 7.72007C38.1212 7.63395 37.7844 7.64626 37.4734 7.75537L33.3499 9.22295C31.8265 7.97373 30.1304 6.98857 28.2921 6.30303L27.4949 1.9917C27.4347 1.66691 27.2772 1.36812 27.0431 1.13501C26.8091 0.901899 26.5097 0.745511 26.1847 0.686621L26.0476 0.66123C23.407 0.183887 20.6242 0.183887 17.9835 0.66123L17.8464 0.686621C17.5214 0.745511 17.222 0.901899 16.988 1.13501C16.754 1.36812 16.5964 1.66691 16.5363 1.9917L15.7339 6.32334C13.9131 7.01435 12.2168 7.99712 10.7117 9.2331L6.55775 7.75537C6.2468 7.64539 5.90974 7.63264 5.59136 7.71881C5.27298 7.80498 4.98837 7.98599 4.77533 8.23779L4.68392 8.34443C2.92838 10.4142 1.55921 12.7828 0.641736 15.337L0.596033 15.469C0.367517 16.1038 0.555408 16.8147 1.0683 17.2565L4.43002 20.1257C4.2726 21.0804 4.19642 22.0554 4.19642 23.0202C4.19642 23.9952 4.2726 24.9702 4.43002 25.9147L1.07845 28.7839C0.827574 28.9987 0.648015 29.2847 0.563655 29.604C0.479294 29.9233 0.49413 30.2607 0.606189 30.5714L0.651892 30.7034C1.57103 33.2577 2.92689 35.619 4.69408 37.696L4.78549 37.8026C4.99904 38.0537 5.28367 38.2342 5.60186 38.3204C5.92004 38.4065 6.25686 38.3942 6.56791 38.2851L10.7218 36.8073C12.2351 38.0515 13.921 39.0366 15.7441 39.7171L16.5464 44.0487C16.6066 44.3735 16.7641 44.6723 16.9981 44.9054C17.2322 45.1385 17.5316 45.2949 17.8566 45.3538L17.9937 45.3792C20.6603 45.8591 23.3912 45.8591 26.0578 45.3792L26.1949 45.3538C26.5199 45.2949 26.8193 45.1385 27.0533 44.9054C27.2873 44.6723 27.4449 44.3735 27.505 44.0487L28.3023 39.7374C30.1406 39.0468 31.8367 38.0667 33.3601 36.8175L37.4835 38.2851C37.7945 38.395 38.1315 38.4078 38.4499 38.3216C38.7683 38.2355 39.0529 38.0544 39.266 37.8026L39.3574 37.696C41.1245 35.6089 42.4804 33.2577 43.3996 30.7034L43.4453 30.5714C43.6636 29.9417 43.4757 29.2358 42.9628 28.794ZM22.0257 31.4448C17.0949 31.4448 13.0984 27.4483 13.0984 22.5175C13.0984 17.5866 17.0949 13.5901 22.0257 13.5901C26.9566 13.5901 30.9531 17.5866 30.9531 22.5175C30.9531 27.4483 26.9566 31.4448 22.0257 31.4448Z" fill="#006666"/>
</svg>
